<svg width="24" height="25" viewBox="0 0 24 25" fill="none" xmlns="http://www.w3.org/2000/svg">
<path d="M21 21.5002L16.657 17.1572M16.657 17.1572C17.3999 16.4143 17.9892 15.5324 18.3912 14.5618C18.7933 13.5911 19.0002 12.5508 19.0002 11.5002C19.0002 10.4496 18.7933 9.40929 18.3912 8.43866C17.9892 7.46803 17.3999 6.58609 16.657 5.84321C15.9141 5.10032 15.0322 4.51103 14.0615 4.10898C13.0909 3.70693 12.0506 3.5 11 3.5C9.94939 3.5 8.90908 3.70693 7.93845 4.10898C6.96782 4.51103 6.08588 5.10032 5.34299 5.84321C3.84266 7.34354 2.99979 9.37842 2.99979 11.5002C2.99979 13.622 3.84266 15.6569 5.34299 17.1572C6.84332 18.6575 8.87821 19.5004 11 19.5004C13.1218 19.5004 15.1567 18.6575 16.657 17.1572Z" stroke="black" stroke-linecap="round" stroke-linejoin="round"/>
</svg>
